<svg width="73" height="73" viewBox="0 0 73 73" fill="none" xmlns="http://www.w3.org/2000/svg">
<g filter="url(#filter0_d)">
<path d="M66.3359 33.3447C66.3359 16.7762 52.9045 3.34473 36.3359 3.34473C19.7674 3.34473 6.33594 16.7762 6.33594 33.3447C6.33594 49.9133 19.7674 63.3447 36.3359 63.3447C52.9045 63.3447 66.3359 49.9133 66.3359 33.3447Z" fill="white"/>
<path d="M65.8359 33.3447C65.8359 17.0523 52.6283 3.84473 36.3359 3.84473C20.0435 3.84473 6.83594 17.0523 6.83594 33.3447C6.83594 49.6371 20.0435 62.8447 36.3359 62.8447C52.6283 62.8447 65.8359 49.6371 65.8359 33.3447Z" stroke="#127F46"/>
</g>
<path d="M34.1232 41.4238L26.4792 33.7808C26.2586 33.5603 26.1348 33.2612 26.1348 32.9493C26.1348 32.6375 26.2586 32.3384 26.4792 32.1178L28.1422 30.4538C28.3627 30.2333 28.6618 30.1094 28.9737 30.1094C29.2855 30.1094 29.5846 30.2333 29.8052 30.4538L34.9542 35.6038L45.9832 24.5758C46.2037 24.3553 46.5028 24.2314 46.8147 24.2314C47.1265 24.2314 47.4256 24.3553 47.6462 24.5758L49.3092 26.2388C49.5297 26.4594 49.6535 26.7585 49.6535 27.0703C49.6535 27.3822 49.5297 27.6813 49.3092 27.9018L35.7862 41.4238C35.5656 41.6443 35.2665 41.7682 34.9547 41.7682C34.6428 41.7682 34.3437 41.6443 34.1232 41.4238Z" fill="#127F46"/>
<defs>
<filter id="filter0_d" x="0.335938" y="0.344727" width="72" height="72" filterUnits="userSpaceOnUse" color-interpolation-filters="sRGB">
<feFlood flood-opacity="0" result="BackgroundImageFix"/>
<feColorMatrix in="SourceAlpha" type="matrix" values="0 0 0 0 0 0 0 0 0 0 0 0 0 0 0 0 0 0 127 0"/>
<feOffset dy="3"/>
<feGaussianBlur stdDeviation="3"/>
<feColorMatrix type="matrix" values="0 0 0 0 0 0 0 0 0 0 0 0 0 0 0 0 0 0 0.051 0"/>
<feBlend mode="normal" in2="BackgroundImageFix" result="effect1_dropShadow"/>
<feBlend mode="normal" in="SourceGraphic" in2="effect1_dropShadow" result="shape"/>
</filter>
</defs>
</svg>
