<svg xmlns="http://www.w3.org/2000/svg" width="139" height="139" viewBox="0 0 139 139">
  <g id="Group_4860" data-name="Group 4860" transform="translate(-604.494 -471.62)">
    <circle id="Ellipse_1495" data-name="Ellipse 1495" cx="69.5" cy="69.5" r="69.5" transform="translate(604.494 471.62)" fill="#eee"/>
    <path id="Icon_awesome-plus" data-name="Icon awesome-plus" d="M49.326,23.119H32.251V6.044A3.8,3.8,0,0,0,28.457,2.25H24.663a3.8,3.8,0,0,0-3.794,3.794V23.119H3.794A3.8,3.8,0,0,0,0,26.913v3.794A3.8,3.8,0,0,0,3.794,34.5H20.869V51.576a3.8,3.8,0,0,0,3.794,3.794h3.794a3.8,3.8,0,0,0,3.794-3.794V34.5H49.326a3.8,3.8,0,0,0,3.794-3.794V26.913A3.8,3.8,0,0,0,49.326,23.119Z" transform="translate(647.634 512.911)" fill="#fff"/>
  </g>
</svg>
