<svg xmlns="http://www.w3.org/2000/svg" width="85" height="80" viewBox="0 0 85 80">
  <g id="Group_4854" data-name="Group 4854" transform="translate(-738 -983)">
    <rect id="Rectangle_2612" data-name="Rectangle 2612" width="85" height="80" rx="40" transform="translate(738 983)" fill="#ebeaea"/>
    <g id="file" transform="translate(763.436 1000)">
      <path id="Path_8643" data-name="Path 8643" d="M20.132,39.81H5.3A5.214,5.214,0,0,1,0,34.7V8.113A5.214,5.214,0,0,1,5.3,3H9.536a1.023,1.023,0,1,1,0,2.045H5.3A3.128,3.128,0,0,0,2.119,8.113V34.7A3.128,3.128,0,0,0,5.3,37.765H20.132a1.023,1.023,0,1,1,0,2.045Z" transform="translate(0 3.135)" fill="#9099a0"/>
      <path id="Path_8644" data-name="Path 8644" d="M21.536,15.27a1.042,1.042,0,0,1-1.06-1.023V8.113A3.128,3.128,0,0,0,17.3,5.045H13.06A1.023,1.023,0,1,1,13.06,3H17.3a5.214,5.214,0,0,1,5.3,5.113v6.135A1.042,1.042,0,0,1,21.536,15.27Z" transform="translate(13.43 3.135)" fill="#9099a0"/>
      <path id="Path_8645" data-name="Path 8645" d="M19.893,12.27H7.179A3.128,3.128,0,0,1,4,9.2V5.113A1.042,1.042,0,0,1,5.06,4.09H8.344a5.34,5.34,0,0,1,10.384,0h3.285a1.042,1.042,0,0,1,1.06,1.023V9.2A3.128,3.128,0,0,1,19.893,12.27ZM6.119,6.135V9.2a1.043,1.043,0,0,0,1.06,1.023H19.893A1.043,1.043,0,0,0,20.953,9.2V6.135H17.774a1.042,1.042,0,0,1-1.06-1.023,3.181,3.181,0,0,0-6.357,0A1.042,1.042,0,0,1,9.3,6.135Z" transform="translate(4.477)" fill="#9099a0"/>
      <path id="Path_8649" data-name="Path 8649" d="M25.251,10.045H4.06A1.023,1.023,0,1,1,4.06,8H25.251a1.023,1.023,0,1,1,0,2.045Z" transform="translate(3.357 8.36)" fill="#127f46"/>
      <path id="Path_8650" data-name="Path 8650" d="M18.893,13.045H4.06A1.023,1.023,0,1,1,4.06,11H18.893a1.023,1.023,0,1,1,0,2.045Z" transform="translate(3.357 11.495)" fill="#127f46"/>
      <path id="Path_8651" data-name="Path 8651" d="M14.655,16.045H4.06A1.023,1.023,0,1,1,4.06,14h10.6a1.023,1.023,0,1,1,0,2.045Z" transform="translate(3.357 14.63)" fill="#127f46"/>
      <g id="Group_23" data-name="Group 23" transform="translate(22.702 22.603)">
        <g id="Path_26" data-name="Path 26" transform="translate(-266.863 -228.988)" fill="#127f46" stroke-linecap="round" stroke-linejoin="bevel">
          <path d="M 277.1434631347656 256.0376586914062 L 276.7492065429688 255.9302520751953 C 276.6345520019531 255.8990173339844 273.9099731445312 255.1442108154297 271.1669921875 253.3021545410156 C 267.3699951171875 250.7523040771484 265.3630065917969 247.3544464111328 265.3630065917969 243.4759368896484 L 265.3630065917969 232.2558746337891 L 265.3630065917969 229.8937835693359 L 267.5008850097656 230.8982543945312 C 268.1708374023438 231.2130432128906 268.8794860839844 231.3726348876953 269.607177734375 231.3726348876953 C 270.5541687011719 231.3726043701172 271.4831848144531 231.0997161865234 272.2937927246094 230.5834655761719 C 273.1307678222656 230.0504150390625 273.8004150390625 229.2799987792969 274.2302856445312 228.3555297851562 L 274.6336975097656 227.4879913330078 L 275.5904235839844 227.4879913330078 L 278.6940307617188 227.4879913330078 L 279.6529235839844 227.4879913330078 L 280.0554504394531 228.3582916259766 C 280.4752807617188 229.2659759521484 281.130859375 230.0280151367188 281.9512939453125 230.5620422363281 C 282.7643127441406 231.0912322998047 283.7007141113281 231.3709564208984 284.6592407226562 231.3709411621094 L 284.6661376953125 231.3709259033203 L 284.74169921875 231.3708190917969 C 285.45068359375 231.3620452880859 286.1378479003906 231.2033081054688 286.78515625 230.8986663818359 L 288.9238891601562 229.8921203613281 L 288.9238891601562 232.2558746337891 L 288.9238891601562 243.4759368896484 C 288.9238891601562 247.3544464111328 286.9169006347656 250.7523040771484 283.1199340820312 253.3021545410156 C 280.376953125 255.1442108154297 277.6523742675781 255.8990173339844 277.5377197265625 255.9302520751953 L 277.1434631347656 256.0376586914062 Z" stroke="none"/>
          <path d="M 275.5904235839844 228.9879913330078 C 274.45166015625 231.4369964599609 272.0813293457031 232.8726196289062 269.6072082519531 232.8726196289062 C 268.6874694824219 232.8726196289062 267.7535400390625 232.6742858886719 266.8630065917969 232.2558746337891 L 266.8630065917969 243.4759368896484 C 266.8630065917969 251.6824188232422 277.1434631347656 254.4829864501953 277.1434631347656 254.4829864501953 C 277.1434631347656 254.4829864501953 287.4238891601562 251.6824188232422 287.4238891601562 243.4759368896484 L 287.4238891601562 232.2558746337891 C 286.5622863769531 232.661376953125 285.6263427734375 232.8712005615234 284.679443359375 232.8712005615234 C 284.6764831542969 232.8712005615234 284.6735534667969 232.8712005615234 284.6705932617188 232.8712005615234 L 284.668212890625 232.8709259033203 C 284.6652526855469 232.8709259033203 284.6622314453125 232.8709411621094 284.6592712402344 232.8709411621094 C 282.1122131347656 232.8709411621094 279.7914123535156 231.3605804443359 278.6940307617188 228.9879913330078 L 275.5904235839844 228.9879913330078 M 275.5904235839844 225.9879760742188 L 278.6940307617188 225.9879760742188 L 281.4168701171875 227.7285919189453 C 282.0188293457031 229.0300140380859 283.2915344238281 229.8709411621094 284.6592712402344 229.8709411621094 L 284.668212890625 229.8709259033203 L 284.6730346679688 229.8712005615234 L 284.6801147460938 229.8712158203125 C 285.1879272460938 229.8712158203125 285.6814880371094 229.7602691650391 286.1464233398438 229.5414581298828 L 290.4238891601562 232.2558746337891 L 290.4238891601562 243.4759368896484 C 290.4238891601562 245.9607849121094 289.7086181640625 248.2720031738281 288.2979431152344 250.3454437255859 C 287.2287292480469 251.9169769287109 285.7679443359375 253.3307342529297 283.9561767578125 254.5474243164062 C 281.0608215332031 256.4917907714844 278.2436828613281 257.2926025390625 277.9319763183594 257.3775024414062 L 276.3549499511719 257.3775024414062 C 276.0432434082031 257.2926025390625 273.22607421875 256.4917907714844 270.3307189941406 254.5474243164062 C 268.5189514160156 253.3307342529297 267.0581970214844 251.9169921875 265.9889526367188 250.3454437255859 C 264.5782775878906 248.2720031738281 263.8630065917969 245.9607849121094 263.8630065917969 243.4759368896484 L 263.8630065917969 232.2558746337891 L 268.1387634277344 229.5406494140625 C 268.6076049804688 229.7609405517578 269.1016540527344 229.8726348876953 269.607177734375 229.8726348876953 C 271.0033264160156 229.8726348876953 272.2536010742188 229.0489654541016 272.8701477050781 227.7230529785156 L 275.5904235839844 225.9879760742188 Z" stroke="none" fill="#e9e9ea"/>
        </g>
        <path id="Union_1" data-name="Union 1" d="M4.177,10V7.071H1.337a1.381,1.381,0,0,1,0-2.76H4.177V1.38a1.338,1.338,0,1,1,2.674,0V4.311H9.693a1.381,1.381,0,0,1,0,2.76H6.851V10a1.338,1.338,0,1,1-2.674,0Z" transform="translate(4.833 6.593)" fill="#fff"/>
      </g>
    </g>
  </g>
</svg>
