<svg xmlns="http://www.w3.org/2000/svg" width="85" height="80" viewBox="0 0 85 80">
  <g id="Group_4853" data-name="Group 4853" transform="translate(-888 -983)">
    <rect id="Rectangle_2613" data-name="Rectangle 2613" width="85" height="80" rx="40" transform="translate(888 983)" fill="#ebeaea"/>
    <g id="attach-file" transform="translate(913 1005.168)">
      <path id="Path_9109" data-name="Path 9109" d="M23.392,33.09A6.4,6.4,0,0,1,17,26.7V17.109a4.109,4.109,0,1,1,8.219,0v9.132a1.37,1.37,0,0,1-2.74,0V17.109a1.37,1.37,0,1,0-2.74,0V26.7a3.653,3.653,0,1,0,7.305,0V14.37a1.37,1.37,0,0,1,2.74,0V26.7A6.4,6.4,0,0,1,23.392,33.09Z" transform="translate(14.048 10.742)" fill="#b4b5b4"/>
      <path id="Path_9110" data-name="Path 9110" d="M27.048,40.179H5.022A5.027,5.027,0,0,1,0,35.157V5.022A5.027,5.027,0,0,1,5.022,0H27.852a5.027,5.027,0,0,1,5.022,5.022V20.51a1.37,1.37,0,0,1-2.74,0V5.022A2.286,2.286,0,0,0,27.852,2.74H5.022A2.286,2.286,0,0,0,2.74,5.022V35.157A2.286,2.286,0,0,0,5.022,37.44H27.048a1.37,1.37,0,0,1,0,2.74Z" fill="#b4b5b4"/>
      <path id="Path_9111" data-name="Path 9111" d="M23.546,16.24H4.37a1.37,1.37,0,0,1,0-2.74H23.546a1.37,1.37,0,0,1,0,2.74Z" transform="translate(2.479 11.156)" fill="#8cb250"/>
      <path id="Path_9112" data-name="Path 9112" d="M23.546,12.24H4.37a1.37,1.37,0,0,1,0-2.74H23.546a1.37,1.37,0,0,1,0,2.74Z" transform="translate(2.479 7.85)" fill="#8cb250"/>
      <path id="Path_9113" data-name="Path 9113" d="M14.415,8.24H4.37a1.37,1.37,0,0,1,0-2.74H14.415a1.37,1.37,0,0,1,0,2.74Z" transform="translate(2.479 4.545)" fill="#8cb250"/>
    </g>
  </g>
</svg>
