<svg xmlns="http://www.w3.org/2000/svg" width="55.875" height="55.875" viewBox="0 0 55.875 55.875">
  <path id="Icon_awesome-check-circle" data-name="Icon awesome-check-circle" d="M56.438,28.5A27.938,27.938,0,1,1,28.5.563,27.937,27.937,0,0,1,56.438,28.5ZM25.268,43.293,46,22.565a1.8,1.8,0,0,0,0-2.549l-2.549-2.549a1.8,1.8,0,0,0-2.549,0l-16.9,16.9L16.1,26.479a1.8,1.8,0,0,0-2.549,0L11,29.028a1.8,1.8,0,0,0,0,2.549L22.719,43.293a1.8,1.8,0,0,0,2.549,0Z" transform="translate(-0.563 -0.563)" fill="#fff"/>
</svg>
