<svg xmlns="http://www.w3.org/2000/svg" width="30" height="30" viewBox="0 0 30 30">
  <g id="Group_4855" data-name="Group 4855" transform="translate(-1170 -1246)">
    <rect id="Rectangle_2800" data-name="Rectangle 2800" width="30" height="30" rx="15" transform="translate(1170 1246)" fill="#127f46"/>
    <path id="Icon_awesome-check" data-name="Icon awesome-check" d="M5.574,16.574.24,11.241a.821.821,0,0,1,0-1.16L1.4,8.92a.82.82,0,0,1,1.16,0l3.593,3.593,7.7-7.7a.821.821,0,0,1,1.16,0l1.16,1.16a.821.821,0,0,1,0,1.16L6.734,16.574A.821.821,0,0,1,5.574,16.574Z" transform="translate(1177 1250.423)" fill="#fff"/>
  </g>
</svg>
