<svg xmlns="http://www.w3.org/2000/svg" width="36.704" height="43.5" viewBox="0 0 36.704 43.5">
  <g id="Group_4856" data-name="Group 4856" transform="translate(-493.8 -498)">
    <g id="contacts" transform="translate(493.8 498)">
      <path id="Path_9124" data-name="Path 9124" d="M134.431,85.195a1.36,1.36,0,0,0-1.923,0l-2.544,2.544a12.282,12.282,0,0,1-4.806-4.806l2.544-2.544a1.359,1.359,0,0,0,0-1.922l-5.287-5.287a1.36,1.36,0,0,0-1.922,0l-2.884,2.884c-1.43,1.43-1.6,3.81-.493,6.7,3.2,8.332,15.215,17.026,19.717,12.523l2.884-2.884a1.359,1.359,0,0,0,0-1.922Zm.481,8.171c-.6.6-2.055.55-3.8-.123a22.945,22.945,0,0,1-11.454-11.454c-.673-1.749-.72-3.206-.123-3.8l1.922-1.922,3.364,3.364L122.9,81.35c-.512.512-.915,1.5.078,3.287,1.457,2.623,6.437,7.5,8.573,5.365l1.922-1.922,3.364,3.364Z" transform="translate(-109.903 -66.597)" fill="#127f46"/>
      <path id="Path_9125" data-name="Path 9125" d="M69.223,0H47.473A7.485,7.485,0,0,0,40,7.477v21.75A7.485,7.485,0,0,0,47.473,36.7H53.5l3.682,6.137a1.36,1.36,0,0,0,2.331,0L63.2,36.7h6.027A7.485,7.485,0,0,0,76.7,29.227V7.477A7.485,7.485,0,0,0,69.223,0Zm4.758,29.227a4.763,4.763,0,0,1-4.758,4.758h-6.8a1.359,1.359,0,0,0-1.166.66L58.348,39.5l-2.913-4.854a1.36,1.36,0,0,0-1.166-.66h-6.8a4.763,4.763,0,0,1-4.758-4.758V7.477a4.763,4.763,0,0,1,4.758-4.758h21.75a4.763,4.763,0,0,1,4.758,4.758Z" transform="translate(-39.996 0)" fill="#127f46"/>
    </g>
  </g>
</svg>
