<svg width="30" height="30" viewBox="0 0 30 30" fill="none" xmlns="http://www.w3.org/2000/svg">
<g clip-path="url(#clip0)">
<path d="M15.0547 0.664152C12.1621 0.664152 9.33455 1.52189 6.92948 3.12891C4.52441 4.73592 2.64989 7.02004 1.54296 9.69241C0.436024 12.3648 0.146401 15.3054 0.710709 18.1423C1.27502 20.9793 2.66791 23.5852 4.71326 25.6306C6.7586 27.6759 9.36453 29.0688 12.2015 29.6331C15.0385 30.1974 17.9791 29.9078 20.6514 28.8009C23.3238 27.694 25.6079 25.8194 27.2149 23.4144C28.822 21.0093 29.6797 18.1817 29.6797 15.2892C29.6864 13.3667 29.3127 11.4619 28.5802 9.68444C27.8476 7.90701 26.7706 6.29209 25.4112 4.93269C24.0518 3.57329 22.4368 2.49628 20.6594 1.76369C18.882 1.0311 16.9772 0.657413 15.0547 0.664152ZM22.3677 20.5542L20.3197 22.6012L15.0547 17.3362L9.78969 22.6012L7.74169 20.5542L13.0077 15.2892L7.74269 10.0242L9.79069 7.97715L15.0547 13.2422L20.3197 7.97715L22.3677 10.0242L17.1017 15.2892L22.3677 20.5542Z" fill="#ED866D"/>
</g>
<defs>
<clipPath id="clip0">
<rect width="29.25" height="29.25" fill="white" transform="translate(0.429688 0.664062)"/>
</clipPath>
</defs>
</svg>
