<svg xmlns="http://www.w3.org/2000/svg" width="82" height="83" viewBox="0 0 82 83">
  <g id="Group_4861" data-name="Group 4861" transform="translate(-554 -2675)">
    <rect id="Rectangle_2530" data-name="Rectangle 2530" width="82" height="83" rx="6" transform="translate(554 2675)" fill="#eee"/>
    <g id="Icon_feather-file-text" data-name="Icon feather-file-text" transform="translate(576.959 2691.422)">
      <path id="Path_8988" data-name="Path 8988" d="M30.715,3H10.943A4.943,4.943,0,0,0,6,7.943V47.488a4.943,4.943,0,0,0,4.943,4.943H40.6a4.943,4.943,0,0,0,4.943-4.943V17.829Z" transform="translate(-6 -3)" fill="none" stroke="#646e76" stroke-linecap="round" stroke-linejoin="round" stroke-width="3"/>
      <path id="Path_8989" data-name="Path 8989" d="M21,3V17.829H35.829" transform="translate(3.715 -3)" fill="none" stroke="#646e76" stroke-linecap="round" stroke-linejoin="round" stroke-width="3"/>
      <path id="Path_8990" data-name="Path 8990" d="M31.772,19.5H12" transform="translate(-2.114 7.687)" fill="none" stroke="#646e76" stroke-linecap="round" stroke-linejoin="round" stroke-width="3"/>
      <path id="Path_8991" data-name="Path 8991" d="M31.772,25.5H12" transform="translate(-2.114 11.573)" fill="none" stroke="#646e76" stroke-linecap="round" stroke-linejoin="round" stroke-width="3"/>
      <path id="Path_8992" data-name="Path 8992" d="M16.943,13.5H12" transform="translate(-2.114 3.801)" fill="none" stroke="#646e76" stroke-linecap="round" stroke-linejoin="round" stroke-width="3"/>
    </g>
  </g>
</svg>
