<svg id="Icon_awesome-info-circle" data-name="Icon awesome-info-circle" xmlns="http://www.w3.org/2000/svg" width="71" height="71" viewBox="0 0 71 71">
  <path id="Icon_awesome-info-circle-2" data-name="Icon awesome-info-circle" d="M36.063.562a35.5,35.5,0,1,0,35.5,35.5A35.505,35.505,0,0,0,36.063.562Zm0,15.746a6.012,6.012,0,1,1-6.012,6.012A6.012,6.012,0,0,1,36.063,16.308Zm8.016,36.359a1.718,1.718,0,0,1-1.718,1.718h-12.6a1.718,1.718,0,0,1-1.718-1.718V49.232a1.718,1.718,0,0,1,1.718-1.718h1.718V38.353H29.764a1.718,1.718,0,0,1-1.718-1.718V33.2a1.718,1.718,0,0,1,1.718-1.718h9.161A1.718,1.718,0,0,1,40.643,33.2V47.514h1.718a1.718,1.718,0,0,1,1.718,1.718Z" transform="translate(-0.563 -0.563)" fill="#b4b5b4"/>
</svg>
