<svg xmlns="http://www.w3.org/2000/svg" width="200" height="72" viewBox="0 0 200 72">
  <g id="Group_4866" data-name="Group 4866" transform="translate(-37 -768)">
    <path id="Path_9086" data-name="Path 9086" d="M36,0H164a36,36,0,0,1,0,72H36A36,36,0,0,1,36,0Z" transform="translate(37 768)" fill="#b4b5b4"/>
    <path id="Icon_awesome-info" data-name="Icon awesome-info" d="M1.406,29.829H2.813V19.671H1.406A1.406,1.406,0,0,1,0,18.265V14.906A1.406,1.406,0,0,1,1.406,13.5H9.281a1.406,1.406,0,0,1,1.406,1.406V29.829h1.406A1.406,1.406,0,0,1,13.5,31.235v3.359A1.406,1.406,0,0,1,12.094,36H1.406A1.406,1.406,0,0,1,0,34.594V31.235A1.406,1.406,0,0,1,1.406,29.829ZM6.75,0a5.063,5.063,0,1,0,5.063,5.063A5.062,5.062,0,0,0,6.75,0Z" transform="translate(66.55 786)" fill="#fff"/>
    <text id="More_info" data-name="More info" transform="translate(102 813)" fill="#fff" font-size="24" font-family="HelveticaNeue-Bold, Helvetica Neue" font-weight="700"><tspan x="0" y="0">More Info</tspan></text>
  </g>
</svg>
