<svg xmlns="http://www.w3.org/2000/svg" width="33.472" height="22.772" viewBox="0 0 33.472 22.772">
  <g id="Group_4859" data-name="Group 4859" transform="translate(-986.716 -2020.765)">
    <g id="email" transform="translate(986.716 1982.236)">
      <path id="Path_9095" data-name="Path 9095" d="M53.412,68.788,42.572,78.34,31.731,68.788a1.041,1.041,0,1,0-1.377,1.563l11.53,10.158a1.042,1.042,0,0,0,1.377,0L54.789,70.351a1.041,1.041,0,1,0-1.377-1.563Z" transform="translate(-25.835 -25.834)" fill="#262521"/>
      <path id="Path_9096" data-name="Path 9096" d="M30.348,38.529H3.124A3.128,3.128,0,0,0,0,41.653V58.177A3.128,3.128,0,0,0,3.124,61.3H30.348a3.128,3.128,0,0,0,3.124-3.124V41.653A3.128,3.128,0,0,0,30.348,38.529Zm1.041,19.648a1.043,1.043,0,0,1-1.041,1.041H3.124a1.043,1.043,0,0,1-1.041-1.041V41.653a1.043,1.043,0,0,1,1.041-1.041H30.348a1.043,1.043,0,0,1,1.041,1.041Z" transform="translate(0 0)" fill="#262521"/>
    </g>
  </g>
</svg>
