<svg xmlns="http://www.w3.org/2000/svg" width="38.664" height="38.664" viewBox="0 0 38.664 38.664">
  <path id="user_1_" data-name="user (1)" d="M35.6,24.544a18.11,18.11,0,0,0-4.619-2.891,1.51,1.51,0,1,0-1.227,2.76,15.1,15.1,0,0,1,3.852,2.4,6.022,6.022,0,0,1,2.04,4.527v2.794a1.512,1.512,0,0,1-1.51,1.51H4.531a1.512,1.512,0,0,1-1.51-1.51V31.339a6.022,6.022,0,0,1,2.04-4.527c1.526-1.341,5.972-4.46,14.271-4.46a11.189,11.189,0,1,0-6.808-2.319,21,21,0,0,0-9.457,4.51A9.043,9.043,0,0,0,0,31.339v2.794a4.536,4.536,0,0,0,4.531,4.531h29.6a4.536,4.536,0,0,0,4.531-4.531V31.339A9.043,9.043,0,0,0,35.6,24.544ZM11.176,11.176a8.156,8.156,0,1,1,8.156,8.156A8.165,8.165,0,0,1,11.176,11.176Zm0,0" fill="#127f46"/>
</svg>
