<svg xmlns="http://www.w3.org/2000/svg" width="85" height="80" viewBox="0 0 85 80">
  <g id="Group_4852" data-name="Group 4852" transform="translate(-1132 -954)">
    <rect id="Rectangle_2718" data-name="Rectangle 2718" width="85" height="80" rx="40" transform="translate(1132 954)" fill="#ebeaea"/>
    <g id="_003-pay-card" data-name="003-pay-card" transform="translate(1153 972.457)">
      <g id="Group_12" data-name="Group 12" transform="translate(0 10.29)">
        <path id="Path_10" data-name="Path 10" d="M62.913,331.067a.876.876,0,0,0-.876.876v7.475a.876.876,0,0,0,.876.876h9.882a.876.876,0,0,0,.876-.876v-7.475a.876.876,0,0,0-.876-.876Zm9.006,7.475h-8.13v-5.724h8.13Z" transform="translate(-56.603 -313.105)" fill="#454545"/>
        <g id="Group_11" data-name="Group 11" transform="translate(0 0)">
          <path id="Path_11" data-name="Path 11" d="M44.846,129.959a3.963,3.963,0,0,0-3.952-3.965H31.462l-.719.548c0,.157.715,1.052.7,1.2h9.445a2.21,2.21,0,0,1,2.2,2.213v2.635H29.151a12.122,12.122,0,0,1-2.251,1.752H43.094v3.423H1.752v-3.422H19.069a12.119,12.119,0,0,1-2.251-1.752H1.752V129.96a2.21,2.21,0,0,1,2.2-2.213H14.52c-.009-.152.97-.806.97-.962l-.984-.789H3.952A3.963,3.963,0,0,0,0,129.959v25.133a3.963,3.963,0,0,0,3.952,3.965H40.893a3.963,3.963,0,0,0,3.952-3.965v-7.768q0-.027,0-.056c0-.018,0-.037,0-.056V129.959Zm-1.752,17.365v7.768a2.21,2.21,0,0,1-2.2,2.213H3.952a2.21,2.21,0,0,1-2.2-2.213V139.52H43.093v7.693q0,.027,0,.056a.3.3,0,0,1,0,.055Z" transform="translate(0 -125.994)" fill="#454545"/>
          <circle id="Ellipse_6" data-name="Ellipse 6" cx="4.957" cy="4.957" r="4.957" transform="translate(29.589 17.692)" fill="#127f46"/>
        </g>
      </g>
      <g id="Group_14" data-name="Group 14" transform="translate(14.506)">
        <g id="Group_13" data-name="Group 13">
          <path id="Path_13" data-name="Path 13" d="M180.3,11.618a5.452,5.452,0,0,1-4.928-3.1h-2.56a5.47,5.47,0,0,1-7.2,2.613v8.968c0,6.559,8.478,8.8,8.478,8.8s8.478-2.239,8.478-8.8V11.126a5.457,5.457,0,0,1-2.271.492Z" transform="translate(-165.615 -8.514)" fill="#127f46"/>
        </g>
        <path id="Path_14" data-name="Path 14" d="M233.815,98.61a.876.876,0,0,1-.616-.255L231.634,96.8a.876.876,0,1,1,1.235-1.242l.891.884,2.516-2.983a.876.876,0,1,1,1.34,1.129l-3.129,3.71a.876.876,0,0,1-.631.31A.268.268,0,0,1,233.815,98.61Z" transform="translate(-225.615 -85.735)" fill="#fff"/>
      </g>
    </g>
  </g>
</svg>
