<svg id="phone" xmlns="http://www.w3.org/2000/svg" width="26.74" height="26.74" viewBox="0 0 26.74 26.74">
  <g id="Group_4617" data-name="Group 4617">
    <path id="Path_9097" data-name="Path 9097" d="M24.629,17.606a15.263,15.263,0,0,1-4.8-.764,2.056,2.056,0,0,0-2.087.442l-3.036,2.293a16.956,16.956,0,0,1-7.546-7.545L9.393,9.068a2.131,2.131,0,0,0,.522-2.153,15.3,15.3,0,0,1-.767-4.8A2.114,2.114,0,0,0,7.037,0H2.111A2.114,2.114,0,0,0,0,2.111,24.658,24.658,0,0,0,24.629,26.74a2.114,2.114,0,0,0,2.111-2.111V19.717A2.114,2.114,0,0,0,24.629,17.606Zm.7,7.023a.7.7,0,0,1-.7.7A23.248,23.248,0,0,1,1.407,2.111a.7.7,0,0,1,.7-.7H7.037a.7.7,0,0,1,.7.7,16.707,16.707,0,0,0,.833,5.235.779.779,0,0,1-.242.8L5.77,11.54a.7.7,0,0,0-.065.743,18.465,18.465,0,0,0,8.751,8.751.7.7,0,0,0,.744-.065l3.465-2.626a.706.706,0,0,1,.716-.167,16.7,16.7,0,0,0,5.247.837.7.7,0,0,1,.7.7v4.912Z" fill="#262521"/>
  </g>
</svg>
