<svg xmlns="http://www.w3.org/2000/svg" width="36.376" height="36.373" viewBox="0 0 36.376 36.373">
  <g id="Group_5360" data-name="Group 5360" transform="translate(-1192.211 -10615)">
    <g id="edit" transform="translate(1192.211 10615)">
      <path id="Path_9126" data-name="Path 9126" d="M1.137,35.467A1.139,1.139,0,0,1,.051,33.989L3.406,23.3a1.137,1.137,0,0,1,.282-.464L24.439,2.083a1.172,1.172,0,0,1,1.608,0l7.339,7.339a1.137,1.137,0,0,1,0,1.608L12.633,31.781a1.161,1.161,0,0,1-.464.282L1.476,35.415a1.139,1.139,0,0,1-.34.052ZM5.491,24.243,2.872,32.595l8.35-2.619L30.974,10.225,25.243,4.493l-7.449,7.449Zm6.339,6.734h.015Z" transform="translate(0 0.906)" fill="#fff"/>
      <path id="Path_9127" data-name="Path 9127" d="M22.975,11.221a1.132,1.132,0,0,1-.8-.333L16.929,5.646a1.134,1.134,0,0,1,0-1.607L19.55,1.419A4.843,4.843,0,1,1,26.4,8.268l-2.621,2.621a1.133,1.133,0,0,1-.8.332ZM19.339,4.843l3.635,3.635L24.79,6.66a2.57,2.57,0,0,0-3.633-3.635Z" transform="translate(8.558 -0.002)" fill="#fff"/>
      <path id="Path_9128" data-name="Path 9128" d="M10.689,25.059a1.128,1.128,0,0,1-.8-.333L2.546,17.386a1.137,1.137,0,0,1,1.608-1.608l7.339,7.339a1.138,1.138,0,0,1-.8,1.942Z" transform="translate(1.141 7.962)" fill="#fff"/>
      <path id="Path_9129" data-name="Path 9129" d="M7.357,12.353a1.138,1.138,0,0,1-.8-1.942l7.339-7.339a4.108,4.108,0,0,1,5.8,0L20.742,4.12a1.137,1.137,0,0,1-1.608,1.608L18.086,4.681a1.833,1.833,0,0,0-2.587,0L8.16,12.02a1.134,1.134,0,0,1-.8.333Z" transform="translate(3.207 0.963)" fill="#fff"/>
    </g>
  </g>
</svg>
