<svg xmlns="http://www.w3.org/2000/svg" xmlns:xlink="http://www.w3.org/1999/xlink" width="91" height="147.001" viewBox="0 0 91 147.001">
  <defs>
    <filter id="Subtraction_2" x="0" y="0" width="91" height="147.001" filterUnits="userSpaceOnUse">
      <feOffset dx="-10" dy="3" input="SourceAlpha"/>
      <feGaussianBlur stdDeviation="6" result="blur"/>
      <feFlood flood-opacity="0.012"/>
      <feComposite operator="in" in2="blur"/>
      <feComposite in="SourceGraphic"/>
    </filter>
  </defs>
  <g id="Group_4865" data-name="Group 4865" transform="translate(-1379.001 -327.999)">
    <g transform="matrix(1, 0, 0, 1, 1379, 328)" filter="url(#Subtraction_2)">
      <path id="Subtraction_2-2" data-name="Subtraction 2" d="M0,0H0V111a54.227,54.227,0,0,0,21.408-4.361A54.808,54.808,0,0,0,38.89,94.745,55.343,55.343,0,0,0,50.677,77.1,55.592,55.592,0,0,0,55,55.5a55.586,55.586,0,0,0-4.322-21.6A55.343,55.343,0,0,0,38.89,16.256,54.793,54.793,0,0,0,21.408,4.361,54.229,54.229,0,0,0,0,0Z" transform="translate(83 126) rotate(180)" fill="#eee"/>
    </g>
    <path id="Icon_awesome-chevron-left" data-name="Icon awesome-chevron-left" d="M20.073,16.807,6.408,3.142a1.688,1.688,0,0,0-2.386,0L2.427,4.736a1.688,1.688,0,0,0,0,2.384L13.255,18,2.425,28.881a1.687,1.687,0,0,0,0,2.384l1.594,1.594a1.688,1.688,0,0,0,2.386,0L20.073,19.193A1.688,1.688,0,0,0,20.073,16.807Z" transform="translate(1431.067 381.352)"/>
  </g>
</svg>
