<svg xmlns="http://www.w3.org/2000/svg" width="21.236" height="20.698" viewBox="0 0 21.236 20.698">
  <path id="Icon_awesome-arrow-right" data-name="Icon awesome-arrow-right" d="M9.029,4.034l1.052-1.052a1.133,1.133,0,0,1,1.607,0L20.9,12.191a1.133,1.133,0,0,1,0,1.607l-9.214,9.214a1.133,1.133,0,0,1-1.607,0L9.029,21.959a1.139,1.139,0,0,1,.019-1.626l5.711-5.441H1.138A1.135,1.135,0,0,1,0,13.755V12.238A1.135,1.135,0,0,1,1.138,11.1H14.759L9.048,5.659A1.131,1.131,0,0,1,9.029,4.034Z" transform="translate(0 -2.647)"/>
</svg>
