<svg xmlns="http://www.w3.org/2000/svg" xmlns:xlink="http://www.w3.org/1999/xlink" width="78" height="78" viewBox="0 0 78 78">
  <defs>
    <filter id="Rectangle_2725" x="0" y="0" width="78" height="78" filterUnits="userSpaceOnUse">
      <feOffset dy="3" input="SourceAlpha"/>
      <feGaussianBlur stdDeviation="3" result="blur"/>
      <feFlood flood-opacity="0.051"/>
      <feComposite operator="in" in2="blur"/>
      <feComposite in="SourceGraphic"/>
    </filter>
  </defs>
  <g id="Group_4867" data-name="Group 4867" transform="translate(-920 -362)">
    <g transform="matrix(1, 0, 0, 1, 920, 362)" filter="url(#Rectangle_2725)">
      <g id="Rectangle_2725-2" data-name="Rectangle 2725" transform="translate(9 6)" fill="none" stroke="#127f46" stroke-width="1">
        <rect width="60" height="60" rx="30" stroke="none"/>
        <rect x="0.5" y="0.5" width="59" height="59" rx="29.5" fill="none"/>
      </g>
    </g>
    <path id="Icon_awesome-check" data-name="Icon awesome-check" d="M7.988,21.77.344,14.127a1.176,1.176,0,0,1,0-1.663L2.007,10.8a1.176,1.176,0,0,1,1.663,0L8.819,15.95,19.848,4.922a1.176,1.176,0,0,1,1.663,0l1.663,1.663a1.176,1.176,0,0,1,0,1.663L9.651,21.77A1.176,1.176,0,0,1,7.988,21.77Z" transform="translate(948.8 384.309)" fill="#127f46"/>
  </g>
</svg>
