<svg id="_001-tick" data-name="001-tick" xmlns="http://www.w3.org/2000/svg" width="151.766" height="151.766" viewBox="0 0 151.766 151.766">
  <g id="Group_4522" data-name="Group 4522" transform="translate(36.035 19.068)">
    <g id="Group_4521" data-name="Group 4521">
      <path id="Path_9060" data-name="Path 9060" d="M232.959,66.007A5.718,5.718,0,0,0,224.871,66l-68.619,68.437L131.5,107.546a5.72,5.72,0,1,0-8.416,7.748l28.79,31.266a5.713,5.713,0,0,0,4.086,1.844c.042,0,.082,0,.122,0a5.726,5.726,0,0,0,4.038-1.668L232.948,74.1A5.719,5.719,0,0,0,232.959,66.007Z" transform="translate(-121.568 -64.327)" fill="#127f46"/>
    </g>
  </g>
  <g id="Group_4524" data-name="Group 4524">
    <g id="Group_4523" data-name="Group 4523">
      <path id="Path_9061" data-name="Path 9061" d="M146.046,70.163a5.719,5.719,0,0,0-5.72,5.72A64.443,64.443,0,1,1,75.883,11.44a5.72,5.72,0,1,0,0-11.44,75.883,75.883,0,1,0,75.883,75.883A5.72,5.72,0,0,0,146.046,70.163Z" fill="#127f46"/>
    </g>
  </g>
</svg>
