<svg xmlns="http://www.w3.org/2000/svg" width="56" height="56" viewBox="0 0 56 56">
  <g id="Group_4858" data-name="Group 4858" transform="translate(-1788.362 -31)">
    <circle id="Ellipse_1489" data-name="Ellipse 1489" cx="28" cy="28" r="28" transform="translate(1788.362 31)" fill="#dbdbdb"/>
    <path id="Icon_awesome-user" data-name="Icon awesome-user" d="M11.813,13.5a6.75,6.75,0,1,0-6.75-6.75A6.749,6.749,0,0,0,11.813,13.5Zm4.725,1.688h-.881a9.18,9.18,0,0,1-7.689,0H7.087A7.089,7.089,0,0,0,0,22.275v2.194A2.532,2.532,0,0,0,2.531,27H21.094a2.532,2.532,0,0,0,2.531-2.531V22.275A7.089,7.089,0,0,0,16.537,15.188Z" transform="translate(1804.237 46)" fill="#fff"/>
  </g>
</svg>
