<svg xmlns="http://www.w3.org/2000/svg" width="155" height="155" viewBox="0 0 155 155">
  <g id="Group_4857" data-name="Group 4857" transform="translate(-4455 882)">
    <rect id="Rectangle_2736" data-name="Rectangle 2736" width="155" height="155" rx="10" transform="translate(4455 -882)" fill="#eee"/>
    <g id="user" transform="translate(4471.583 -855.879)">
      <g id="Group_4650" data-name="Group 4650" transform="translate(11.328 53.015)">
        <g id="Group_4649" data-name="Group 4649">
          <path id="Path_9115" data-name="Path 9115" d="M61.872,257.323a50.6,50.6,0,0,0-50.544,50.544,2.2,2.2,0,1,0,4.4,0,46.149,46.149,0,1,1,92.3,0,2.2,2.2,0,1,0,4.4,0A50.6,50.6,0,0,0,61.872,257.323Z" transform="translate(-11.328 -257.323)" fill="#b4b5b4"/>
        </g>
      </g>
      <g id="Group_4652" data-name="Group 4652" transform="translate(37.699)">
        <g id="Group_4651" data-name="Group 4651" transform="translate(0)">
          <path id="Path_9116" data-name="Path 9116" d="M163.5,0a24.173,24.173,0,1,0,24.173,24.173A24.2,24.2,0,0,0,163.5,0Zm0,43.952A19.778,19.778,0,1,1,183.28,24.173,19.8,19.8,0,0,1,163.5,43.952Z" transform="translate(-139.328)" fill="#b4b5b4"/>
        </g>
      </g>
    </g>
  </g>
</svg>
