<svg width="81" height="60" viewBox="0 0 81 60" fill="none" xmlns="http://www.w3.org/2000/svg">
<path d="M40.6641 15.2872L54.5982 23.598L64.1539 16.2091L50.3332 7.49121L40.6641 15.2872Z" fill="#1976D2"/>
<path d="M40.6656 15.2921L30.9964 7.49219L17.1777 16.2081L26.7353 23.6009L40.6656 15.2921Z" fill="#1976D2"/>
<path d="M40.6656 31.9104L50.3328 39.7064L64.1534 30.9905L54.5958 23.5977L40.6656 31.9084L26.7314 23.5977L17.1777 30.9905L30.9964 39.7064L40.6656 31.9104Z" fill="#1976D2"/>
<path d="M55.3461 44.068V39.9087L51.0322 42.6294V42.6313C49.4115 43.6628 48.6736 41.5822 40.6662 35.5811C32.5218 41.7036 31.9111 43.6452 30.2963 42.6294L25.9863 39.9106V44.068L40.6956 52.5099L55.3461 44.068Z" fill="#1976D2"/>
</svg>
