<svg width="80" height="60" viewBox="0 0 80 60" fill="none" xmlns="http://www.w3.org/2000/svg">
<path d="M12.0979 52.7669H67.5635C68.2853 52.7669 68.8703 52.1818 68.8703 51.46V50.2837C68.8712 50.2641 68.8763 50.2459 68.8763 50.226C68.8763 50.0126 68.8251 49.8113 68.7344 49.6335L63.0627 35.3562V8.79904C63.0627 8.07722 62.4777 7.49219 61.7558 7.49219H17.9058C17.1839 7.49219 16.5989 8.07722 16.5989 8.79904V35.3562L10.8832 49.7436C10.8576 49.8079 10.8396 49.8736 10.8246 49.9398C10.8209 49.9566 10.818 49.9734 10.8149 49.9905C10.8007 50.0667 10.7919 50.1438 10.7916 50.2208L10.791 50.226V51.46C10.791 52.1818 11.376 52.7669 12.0979 52.7669ZM32.8168 48.5494L34.3994 44.8521H45.48L47.1997 48.5494H32.8168ZM20.441 10.8263H59.2206V33.579H20.441V10.8263Z" fill="#707070"/>
<g clip-path="url(#clip0)">
<path d="M37.0515 19.0515C37.1012 19.0018 37.1758 18.9865 37.2411 19.0126L42.8895 21.2719C42.9541 21.2978 42.9974 21.3593 42.9999 21.4289C43.0025 21.4983 42.9635 21.5629 42.9009 21.5933L41.3789 22.3314L42.9485 23.9011C42.9828 23.9354 43 23.9804 43 24.0254C43 24.0704 42.9828 24.1153 42.9485 24.1497L42.1497 24.9485C42.1167 24.9815 42.072 25 42.0254 25C41.9788 25 41.9341 24.9815 41.9011 24.9485L40.3315 23.3789L39.5934 24.9009C39.563 24.9635 39.4985 25.0023 39.429 24.9998C39.3594 24.9974 39.2979 24.9541 39.272 24.8895L37.0126 19.2411C36.9865 19.1758 37.0018 19.1012 37.0515 19.0515Z" fill="#707070"/>
</g>
<defs>
<clipPath id="clip0">
<rect width="6" height="6" fill="white" transform="matrix(-1 0 0 1 43 19)"/>
</clipPath>
</defs>
</svg>
