<svg width="81" height="60" viewBox="0 0 81 60" fill="none" xmlns="http://www.w3.org/2000/svg">
<path d="M17.7108 40.741C17.7108 36.1519 20.1269 31.9806 23.9335 29.6665C24.5442 22.397 30.6558 16.6679 38.0804 16.6679C39.4768 16.6679 40.8642 16.8762 42.1938 17.2802C44.1592 15.3873 46.5911 14.0513 49.2343 13.4053C47.057 10.8536 43.822 9.26074 40.3025 9.26074C36.4046 9.26074 32.8146 11.1947 30.6515 14.3299C29.0856 13.4401 27.311 12.9643 25.4883 12.9643C19.7022 12.9643 14.9949 17.6716 14.9949 23.4577C14.9949 23.8346 15.0151 24.2105 15.0555 24.584C11.3938 25.8448 8.82227 29.3156 8.82227 33.3338C8.82227 38.3593 12.8475 42.4594 17.8428 42.5867C17.7565 41.9836 17.7108 41.3676 17.7108 40.741Z" fill="#104CAD"/>
<path d="M64.5711 29.457C64.605 29.1012 64.6222 28.747 64.6222 28.3959C64.6222 21.9291 59.361 16.668 52.8943 16.668C48.9963 16.668 45.4063 18.602 43.2433 21.7371C41.6774 20.8473 39.9028 20.3715 38.0801 20.3715C32.294 20.3715 27.5867 25.0789 27.5867 30.8649C27.5867 31.2418 27.6069 31.6177 27.6473 31.9913C23.9856 33.252 21.4141 36.7228 21.4141 40.7411C21.4141 45.8464 25.5676 50 30.6729 50H61.5359C67.322 50 72.0293 45.2926 72.0293 39.5066C72.0293 34.7864 68.9352 30.7616 64.5711 29.457Z" fill="#104CAD"/>
</svg>
