<svg xmlns="http://www.w3.org/2000/svg" width="178.7" height="186.951" viewBox="0 0 178.7 186.951"><defs><style>.a{fill:#b4b5b4;}</style></defs><g transform="translate(0 93.716)"><path class="a" d="M100.678,257.323a89.452,89.452,0,0,0-89.35,89.35,3.885,3.885,0,0,0,7.77,0,81.58,81.58,0,1,1,163.16,0,3.885,3.885,0,1,0,7.77,0A89.448,89.448,0,0,0,100.678,257.323Z" transform="translate(-11.328 -257.323)"/></g><g transform="translate(46.617)"><g transform="translate(0)"><path class="a" d="M182.06,0a42.732,42.732,0,1,0,42.732,42.732A42.783,42.783,0,0,0,182.06,0Zm0,77.7a34.963,34.963,0,1,1,34.963-34.963A35.006,35.006,0,0,1,182.06,77.7Z" transform="translate(-139.328)"/></g></g></svg>